HIERARCHY
ROOT hip
{
	OFFSET 0.000000 0.000000 0.000000 
	CHANNELS 6 Xposition Yposition Zposition Xrotation Zrotation Yrotation
	JOINT abdomen
	{
		OFFSET 0.000000 3.402643 0.000000 
		CHANNELS 3 Xrotation Zrotation Yrotation
		JOINT chest
		{
			OFFSET 0.000000 8.438565 -0.680529 
			CHANNELS 3 Xrotation Zrotation Yrotation
			JOINT neck
			{
				OFFSET 0.000000 10.207942 -0.272212 
				CHANNELS 3 Xrotation Zrotation Yrotation
				JOINT head
				{
					OFFSET 0.000000 3.130431 0.000000 
					CHANNELS 3 Xrotation Zrotation Yrotation
					End Site
					{
						OFFSET 0.000000 3.130435 0.000000 
					}
				}
			}
			JOINT lCollar
			{
				OFFSET 3.470700 6.669187 -0.816635 
				CHANNELS 3 Yrotation Zrotation Xrotation
				JOINT lShldr
				{
					OFFSET 3.198488 0.000000 0.000000 
					CHANNELS 3 Zrotation Yrotation Xrotation
					JOINT lForeArm
					{
						OFFSET 10.139888 0.000000 0.000000 
						CHANNELS 3 Yrotation Zrotation Xrotation
						JOINT lHand
						{
							OFFSET 8.370511 0.000000 0.000000 
							CHANNELS 3 Zrotation Yrotation Xrotation
							End Site
							{
								OFFSET 4.083176 0.000000 0.000000 
							}
						}
					}
				}
			}
			JOINT rCollar
			{
				OFFSET -3.470700 6.669187 -0.816635 
				CHANNELS 3 Yrotation Zrotation Xrotation
				JOINT rShldr
				{
					OFFSET -3.198488 0.000000 0.000000 
					CHANNELS 3 Zrotation Yrotation Xrotation
					JOINT rForeArm
					{
						OFFSET -10.139888 0.000000 0.000000 
						CHANNELS 3 Yrotation Zrotation Xrotation
						JOINT rHand
						{
							OFFSET -8.370511 0.000000 0.000000 
							CHANNELS 3 Zrotation Yrotation Xrotation
							End Site
							{
								OFFSET -4.083176 0.000000 0.000000 
							}
						}
					}
				}
			}
		}
	}
	JOINT lThigh
	{
		OFFSET 5.308129 -1.633274 1.361059 
		CHANNELS 3 Xrotation Zrotation Yrotation
		JOINT lShin
		{
			OFFSET -2.041588 -20.007561 0.000000 
			CHANNELS 3 Xrotation Zrotation Yrotation
			JOINT lFoot
			{
				OFFSET 0.000000 -19.190928 -1.224953 
				CHANNELS 3 Xrotation Yrotation Zrotation
				End Site
				{
					OFFSET 0.000000 -2.449906 4.627600 
				}
			}
		}
	}
	JOINT rThigh
	{
		OFFSET -5.308129 -1.633274 1.361059 
		CHANNELS 3 Xrotation Zrotation Yrotation
		JOINT rShin
		{
			OFFSET 2.041588 -20.007561 0.000000 
			CHANNELS 3 Xrotation Zrotation Yrotation
			JOINT rFoot
			{
				OFFSET 0.000000 -19.190928 -1.224953 
				CHANNELS 3 Xrotation Yrotation Zrotation
				End Site
				{
					OFFSET 0.000000 -2.449906 4.627600 
				}
			}
		}
	}
}
MOTION
Frames: 11
Frame Time: 0.016667
-35.191109 28.751076 7.708879 -21.230471 11.923829 29.609375 78.135658 0.544572 -8.332168 -36.796871 0.000000 0.000000 -32.781864 -8.317076 -35.016788 6.074219 -1.259766 0.214844 -7.713498 -0.206835 -0.018100 -59.702286 3.103997 -4.205660 -89.250351 -21.783648 9.525826 26.522793 -25.787537 7.420567 7.703730 0.197082 -0.017631 33.136799 -14.033393 -27.307835 68.111275 -4.201487 10.971152 -12.727429 3.570840 18.637384 -54.439110 23.211287 -1.114523 85.985435 7.432069 -2.339440 -2.124776 -0.063356 -3.243904 -54.968437 -14.531095 -0.880014 81.620193 -2.900299 5.048190 15.660665 4.830936 4.850329 
-35.224270 28.974609 7.758605 -20.996094 11.435547 29.806622 77.439377 0.808573 -8.835859 -36.796871 0.000000 0.000000 -34.438179 -9.234676 -33.678452 6.074219 -1.259766 0.214844 -7.713498 -0.206835 -0.018100 -59.437965 3.321042 -4.609200 -84.790115 -21.315786 10.429376 22.500999 -21.572954 8.189552 7.703730 0.197082 -0.017631 35.142784 -15.392449 -27.042408 74.220444 -4.111661 11.250825 -16.047569 4.384373 17.899551 -54.444515 23.277756 -0.859282 85.333542 7.022387 -2.688553 -1.510580 -0.544126 -3.153506 -57.091331 -14.822279 -0.571470 82.101265 -3.065603 5.072393 18.075657 5.187345 5.930105 
-35.251694 29.120951 7.790614 -21.044922 11.035156 29.775391 76.871658 0.927128 -9.076269 -36.796871 0.000000 0.000000 -36.621143 -10.455709 -32.734562 6.074219 -1.259766 0.214844 -7.713498 -0.206835 -0.018100 -59.493576 3.690031 -4.611400 -79.267105 -21.087404 13.103547 20.923229 -20.570166 9.813652 7.703730 0.197082 -0.017631 36.816315 -16.133591 -27.109364 77.944946 -4.441163 12.118708 -19.147297 5.171614 18.495502 -54.231194 23.698175 -0.448560 84.906982 6.562503 -2.863763 -2.764824 -0.699295 -1.676079 -59.204803 -14.725634 -0.262907 83.345184 -3.251521 4.801739 13.879918 4.387529 5.659410 
-35.283718 29.179838 7.789480 -21.240232 10.390625 29.630669 76.355309 1.216569 -8.771411 -36.796871 0.000000 0.000000 -39.773884 -12.124796 -32.229061 6.074219 -1.259766 0.214844 -7.713498 -0.206835 -0.018100 -59.486923 4.198644 -4.250622 -76.103149 -21.678303 13.353998 19.733427 -21.267176 8.424273 7.703730 0.197082 -0.017631 36.797390 -15.860596 -27.245670 77.891655 -4.697899 12.307759 -21.106020 6.520471 18.530973 -54.539661 23.934999 -0.251960 84.688759 6.240001 -2.809007 -4.352812 -0.536824 -1.085596 -60.972874 -14.647751 -0.095378 84.694527 -3.222471 4.301491 6.973041 3.148290 5.132264 
-35.298580 29.127806 7.754034 -21.347656 10.224608 29.435326 76.833649 1.724533 -8.485852 -36.796871 0.000000 0.000000 -43.712811 -13.522174 -32.142906 6.074219 -1.259766 0.214844 -7.713498 -0.206835 -0.018100 -59.556900 4.449691 -3.940368 -77.234291 -22.479296 11.225630 18.997107 -21.798422 5.748051 7.703730 0.197082 -0.017631 34.719959 -14.818623 -27.089144 74.210243 -4.170756 11.256845 -20.940254 7.051293 17.221203 -54.843945 24.189775 -0.301751 84.881897 6.223419 -2.905101 -4.792349 -0.623739 -2.187695 -60.718708 -14.569673 -0.297505 85.024200 -3.046477 4.039681 3.741250 2.538819 4.004336 
-35.209408 28.934582 7.694017 -21.406250 10.733028 29.209194 77.892860 2.073693 -8.356522 -36.796871 0.000000 0.000000 -46.465916 -14.467874 -32.617825 6.074219 -1.259766 0.214844 -7.713498 -0.206835 -0.018100 -59.855610 4.123573 -3.859901 -80.139046 -22.570332 10.402077 20.879156 -22.553919 5.600859 7.703730 0.197082 -0.017631 32.218784 -13.677746 -26.854805 69.730820 -3.373007 9.636348 -16.775297 4.568180 15.670938 -54.810326 24.431768 -0.416321 85.672829 6.523886 -2.881280 -5.053794 -0.660052 -3.205044 -57.691467 -14.657394 -0.846758 83.744530 -2.626556 4.204518 6.397025 2.872823 3.322624 
-35.125370 28.690475 7.636853 -21.210939 11.259766 29.179688 78.354752 2.019524 -8.524246 -36.796871 0.000000 0.000000 -46.432289 -14.880855 -33.567162 6.074219 -1.259766 0.214844 -7.713498 -0.206835 -0.018100 -60.468689 3.607360 -3.854741 -81.707336 -22.205967 10.594311 22.978474 -23.486990 6.196019 7.703730 0.197082 -0.017631 30.559601 -12.530144 -26.734949 66.078285 -2.796059 8.245904 -12.007057 2.192536 14.206360 -54.668537 24.478306 -0.376530 86.394775 6.572550 -2.916860 -4.796153 -0.892534 -2.366477 -54.096241 -14.783801 -1.354102 82.381020 -2.421829 4.554109 6.346529 3.369923 3.615351 
-35.096210 28.591576 7.657420 -20.898439 11.308594 29.257813 78.195511 1.654943 -8.850474 -36.796871 0.000000 0.000000 -44.441364 -14.731080 -35.161945 6.074219 -1.259766 0.214844 -7.713498 -0.206835 -0.018100 -60.802399 2.761428 -3.589149 -79.818947 -21.999014 11.543683 24.165085 -24.876909 6.081993 7.703730 0.197082 -0.017631 30.501907 -11.496122 -26.668867 64.054893 -2.756075 8.854493 -11.695717 2.313250 15.259670 -54.835468 24.390806 -0.297847 86.434456 6.387167 -2.862944 -2.787822 -0.897648 -1.546269 -52.847218 -15.165079 -1.749371 82.297020 -2.099119 4.784240 2.517832 3.504637 1.873941 
-35.116798 28.716194 7.710030 -20.869141 11.015624 29.238281 77.762352 1.657353 -8.931176 -36.796871 0.000000 0.000000 -42.141644 -14.382193 -35.777222 6.074219 -1.259766 0.214844 -7.713498 -0.206835 -0.018100 -60.732880 2.305110 -3.391752 -76.488609 -21.859491 12.814036 23.738375 -24.632607 6.335347 7.703730 0.197082 -0.017631 31.903978 -11.976657 -26.791296 67.001129 -3.348145 10.478174 -13.988168 4.179751 17.402521 -55.471687 24.352646 -0.402677 85.854881 6.308655 -2.731356 0.985203 -0.782211 -2.089950 -53.494164 -15.370772 -1.831147 82.170586 -1.913664 4.695546 4.024014 3.455442 1.626856 
-35.106503 28.867134 7.744310 -21.093750 10.507812 29.326172 76.813934 2.324649 -9.138793 -36.796871 0.000000 0.000000 -40.014954 -13.232097 -34.973415 6.074219 -1.259766 0.214844 -7.713498 -0.206835 -0.018100 -60.305603 3.028149 -3.733001 -74.236725 -21.575573 13.582240 22.470596 -22.355062 7.006723 7.703730 0.197082 -0.017631 33.512928 -13.084922 -26.849026 72.117546 -3.866176 12.155509 -16.994085 5.951518 19.124083 -56.848133 24.362198 -0.809131 85.440201 6.455905 -2.891752 5.165059 -1.184099 -3.366619 -54.624081 -15.223310 -1.462943 81.861191 -2.167824 4.607196 7.900364 3.627007 4.037071 
-35.132793 28.983173 7.810632 -20.966797 10.234375 29.550779 76.160515 2.475241 -9.746249 -36.796871 0.000000 0.000000 -37.946758 -10.850182 -34.648247 6.074219 -1.259766 0.214844 -7.713498 -0.206835 -0.018100 -58.592335 3.231380 -3.873455 -71.239441 -21.458208 16.319029 22.628813 -21.101336 9.533747 7.703730 0.197082 -0.017631 35.123108 -14.455093 -26.781298 76.569138 -3.999471 12.860567 -20.034544 6.434334 19.372387 -57.812996 24.292959 -0.998739 85.032913 6.464782 -3.022557 9.177949 -1.586138 -3.449887 -55.023647 -15.193913 -1.167547 81.495995 -2.587281 4.785624 9.373919 4.041752 5.720953 
